<svg id="Layer_1" data-name="Layer 1" xmlns="http://www.w3.org/2000/svg" viewBox="0 0 42 32"><defs><style>.cls-1{fill:#fff;}</style></defs><title>AMCSTR</title><rect y="6.32" width="42" height="19.36"/><path class="cls-1" d="M22.83,10.87l-1.91,7.38c-.17-.81-1.92-7.38-1.92-7.38H15.32V21.13h2.41V13.61l2.08,7.52H22l2.08-7.52v7.52h2.41V10.87Z"/><path class="cls-1" d="M9.52,10.63C5.61,10.63,5,13.19,5,14H7.33c.17-.62.65-1.33,2.23-1.33a1.9,1.9,0,0,1,2.08,1.91s0,.23,0,.23h-.71c-3.46,0-6.31.68-6.31,3.45A3.52,3.52,0,0,0,8.3,21.38a6.14,6.14,0,0,0,3.39-1l.06.78H14V15.56C14,12.41,12.82,10.63,9.52,10.63Zm2.13,6.59a2.08,2.08,0,0,1-.23.91,2.85,2.85,0,0,1-2.55,1.22C7.76,19.35,7,19,7,18.21c0-1.07,1.22-1.37,2.12-1.47A16.85,16.85,0,0,1,11,16.65h.7Z"/><path class="cls-1" d="M35.07,17.22a2.67,2.67,0,0,1-2.5,2c-1.53,0-2.68-1.39-2.68-3.22s1.15-3.22,2.68-3.22a2.67,2.67,0,0,1,2.5,2h2.32a4.92,4.92,0,0,0-4.82-4.14c-2.89,0-4.93,2.19-4.93,5.38s2,5.38,4.93,5.38a4.92,4.92,0,0,0,4.82-4.16Z"/></svg>