<?xml version="1.0" encoding="UTF-8"?>
<svg width="42px" height="32px" viewBox="0 0 42 32" version="1.1" xmlns="http://www.w3.org/2000/svg" xmlns:xlink="http://www.w3.org/1999/xlink">
    <!-- Generator: Sketch 46.2 (44496) - http://www.bohemiancoding.com/sketch -->
    <title>BET_Color</title>
    <desc>Created with Sketch.</desc>
    <defs></defs>
    <g id="Domestic" stroke="none" stroke-width="1" fill="none" fill-rule="evenodd">
        <g id="BET" fill="#000000">
            <g id="Logo-/-BET-White" transform="translate(1.000000, 9.000000)">
                <path d="M10.1320849,6.93640197 C10.7049917,6.70650768 11.1927751,6.23296536 11.5147573,5.64468968 C11.4660009,6.01539956 11.4420963,6.40748833 11.4420963,6.82786849 C11.4420963,7.29684999 11.4745278,7.74787322 11.5361111,8.17780262 C11.2421146,7.640765 10.7750291,7.22152505 10.1320849,6.93640197 L10.1320849,6.93640197 Z M8.74773626,9.08498001 C8.74773626,9.90557292 7.8347002,9.87207933 7.8347002,9.87207933 L3.96945592,9.87207933 L3.96945592,8.29959101 L7.83790691,8.29959101 C8.79510802,8.29959101 8.74773626,9.08498001 8.74773626,9.08498001 L8.74773626,9.08498001 Z M3.9616578,4.00222113 L7.83032743,4.00222113 C8.78745566,4.00222113 8.73993814,4.7876814 8.73993814,4.7876814 C8.73993814,5.60827431 7.82697496,5.5746382 7.82697496,5.5746382 L3.9616578,5.5746382 L3.9616578,4.00222113 Z M31.7511725,0.890951849 L16.9218432,0.890951849 C15.5702175,0.890951849 14.7558604,1.07188849 14.0893762,1.47010587 C13.5339605,1.81402088 13.0157134,2.28464143 12.6083891,2.86386671 C12.3275839,3.25082455 12.1030417,3.6491132 11.9276933,4.07091862 C11.9276933,4.06685663 11.927912,4.06265211 11.927912,4.0584476 C11.927912,2.48403517 10.8911992,1.21655228 9.42865069,0.999414064 C9.0396192,0.945111693 8.39208365,0.890951849 7.91078654,0.890951849 L0.931832758,0.890951849 L0.931832758,12.9643214 L7.76247649,12.9643214 C9.53964637,12.9643214 10.3172721,12.7649989 10.9835377,12.1677441 C11.5945605,11.6247204 11.9090362,10.773912 11.9090362,9.77836855 C11.9090362,9.75086105 11.907287,9.7244225 11.9068498,9.69727131 C12.4165699,11.1126961 13.3210791,12.1383125 14.4965547,12.5481458 C15.3297147,12.8376159 16.4034503,12.9643214 17.9396801,12.9643214 L20.7789978,12.9643214 L20.7789978,9.8625301 L18.7298411,9.8625301 C16.2642502,9.8573279 15.4567439,10.0746799 15.0259524,8.31790558 L20.7789978,8.31790558 L20.7789978,5.5917413 L15.0202678,5.58832068 C15.0202678,5.58832068 15.3078508,3.99274316 17.0156393,3.99274316 L18.7455103,3.99274316 L22.6856019,3.99274316 L22.6856019,12.9643214 L26.2650852,12.9643214 L26.2650852,3.99274316 L30.7641636,3.99274316 L31.7511725,0.890951849 Z M40.0566085,5.57934155 L35.1088102,5.57934155 L33.5889054,0.897864355 L32.0700938,5.57934155 L27.1209836,5.57934155 L31.1319143,8.38361003 L29.5916761,12.9448666 L33.5889054,10.1148722 L37.5873008,12.9448666 L36.0477185,8.38361003 L40.0566085,5.57934155 Z" id="bet"></path>
            </g>
        </g>
    </g>
</svg>