<svg xmlns="http://www.w3.org/2000/svg" viewBox="0 0 40 40"><path d="M13.65 20a4.32 4.32 0 0 1-4.32 4.33h0A4.32 4.32 0 1 1 13.65 20h0zm-.26 0a4.23 4.23 0 0 0-1.58-1.82 4.33 4.33 0 0 0-2.49-.76 4.38 4.38 0 0 0-2.5.76A4.31 4.31 0 0 0 5.26 20a4.51 4.51 0 0 0 6.55 1.84A4.34 4.34 0 0 0 13.39 20zm-1.77 0A2.29 2.29 0 1 1 11 18.37 2.19 2.19 0 0 1 11.62 20zM14.42 20a4.13 4.13 0 0 1 4.24-4.07A4.19 4.19 0 0 1 22 17.48L20.84 18.6a2.83 2.83 0 0 0-2.18-1.12 2.51 2.51 0 0 0 0 5 2.88 2.88 0 0 0 2.24-1.11L22 22.5a4.22 4.22 0 0 1-3.35 1.56A4.13 4.13 0 0 1 14.42 20zM22.63 16.08h3.3a2.23 2.23 0 0 1 2.51 2.07 1.74 1.74 0 0 1-1.06 1.62 2 2 0 0 1 1.45 1.9c0 1.22-1 2.23-2.68 2.23H22.63zm3.18 3a.79.79 0 1 0 0-1.57h-1.5V19.1zM26 22.45a1 1 0 1 0 0-1.9H24.31v1.9zM29 22.84l1.11-1.12a2.51 2.51 0 0 0 1.85.84c.89 0 1.28-.39 1.28-.89 0-1.34-3.91-.72-3.91-3.46 0-1.23 1.06-2.28 2.85-2.28A3.53 3.53 0 0 1 34.83 17L33.72 18.1a2.08 2.08 0 0 0-1.45-.67c-.85 0-1.18.34-1.18.78 0 1.34 3.91.73 3.91 3.46 0 1.29-1.12 2.41-3 2.41A4 4 0 0 1 29 22.84z"/></svg>