<?xml version="1.0" encoding="UTF-8"?>
<svg width="42px" height="32px" viewBox="0 0 42 32" version="1.1" xmlns="http://www.w3.org/2000/svg" xmlns:xlink="http://www.w3.org/1999/xlink">
    <!-- Generator: Sketch 46.2 (44496) - http://www.bohemiancoding.com/sketch -->
    <title>CNNHD_Color</title>
    <desc>Created with Sketch.</desc>
    <defs></defs>
    <g id="Domestic" stroke="none" stroke-width="1" fill="none" fill-rule="evenodd">
        <g id="CNNHD" fill="#B8242A">
            <g id="Logo-/-CNN-Color" transform="translate(1.000000, 7.000000)">
                <path d="M37.569072,16.3737186 C37.569072,15.9723485 37.9050189,15.6523034 38.3301894,15.6523034 C38.7552273,15.6523034 39.0909091,15.9723485 39.0909091,16.3737186 C39.0909091,16.7753515 38.7552273,17.0955279 38.3301894,17.0955279 C37.9050189,17.0955279 37.569072,16.7753515 37.569072,16.3737186 Z M38.974375,16.3737186 C38.974375,16.0333094 38.6775379,15.7633207 38.3301894,15.7633207 C37.9825758,15.7633207 37.6854735,16.0333094 37.6854735,16.3737186 C37.6854735,16.7142591 37.9825758,16.9845106 38.3301894,16.9845106 C38.6775379,16.9845106 38.974375,16.7142591 38.974375,16.3737186 Z M38.6910606,16.7640527 L38.5514583,16.7640527 L38.3028788,16.3997321 L38.1631439,16.3997321 L38.1631439,16.7640527 L38.0466098,16.7640527 L38.0466098,15.9739251 L38.4078788,15.9739251 C38.5572917,15.9739251 38.7027273,16.0129453 38.7027273,16.1830842 C38.7027273,16.3386398 38.5881818,16.3959221 38.4407576,16.3997321 L38.6910606,16.7640527 Z M38.3028788,16.2887148 C38.4057576,16.2887148 38.5861932,16.307371 38.5861932,16.1813763 C38.5861932,16.0999198 38.4736364,16.0853365 38.3842803,16.0853365 L38.1631439,16.0853365 L38.1631439,16.2887148 L38.3028788,16.2887148 Z M35.3005682,0.662081964 L37.3707386,0.662081964 L37.3707386,14.2800249 C37.3704735,17.3874573 33.3185606,18.8791615 31.1740152,15.2694581 C31.0190341,15.0085347 27.6412689,9.24168031 27.6412689,9.24168031 L27.6412689,14.2800249 C27.6410038,17.3874573 23.5889583,18.8791615 21.4445455,15.2694581 C21.2895644,15.0085347 17.9115341,9.24168031 17.9115341,9.24168031 L17.9115341,13.9908545 C17.9143182,16.1466916 16.6195833,17.3158545 14.6066856,17.3146721 L9.31121212,17.3146721 C4.67079545,17.3146721 0.909090909,13.586594 0.909090909,8.98837701 C0.909090909,4.38963452 4.67079545,0.662081964 9.31121212,0.662081964 L12.0327273,0.662081964 L12.0327273,2.7180692 L9.30882576,2.7180692 C5.8200947,2.7180692 2.98164773,5.53094458 2.98164773,8.98837701 C2.98164773,12.4456781 5.8200947,15.2584221 9.30882576,15.2584221 L14.5535227,15.2584221 C15.2345644,15.2584221 15.8320833,14.6672058 15.8320833,13.9932194 L15.8322159,3.75493106 C15.8322159,3.47705944 16.013447,3.32951815 16.1685606,3.28747611 C16.4098485,3.22244232 16.6608144,3.36367731 16.8396591,3.66480344 C16.8692235,3.71485974 18.7095076,6.8588162 20.3332955,9.63293407 C21.9027273,12.3135084 23.2579167,14.6289739 23.2756818,14.6589288 C23.6840152,15.346579 24.291875,15.4667929 24.7244697,15.3501263 C25.2307765,15.2133582 25.5709659,14.7596983 25.5710985,14.2212974 L25.5710985,3.75506244 C25.5710985,3.52553917 25.7018182,3.341868 25.9041288,3.28721335 C26.1425,3.22296785 26.3906818,3.36420284 26.5689962,3.66480344 C26.5971023,3.71210073 28.2151894,6.47623362 29.7799811,9.14958196 C31.7166477,12.4585534 32.9876515,14.6296308 33.0051515,14.6589288 C33.32625,15.1991691 33.7701136,15.3892779 34.1553788,15.3892779 C34.2606439,15.3892779 34.3612689,15.3750887 34.4542045,15.3501263 C34.9603788,15.2130955 35.3005682,14.7596983 35.3005682,14.2212974 L35.3005682,0.662081964 Z M3.67329545,8.98837701 C3.67329545,5.90892881 6.20151515,3.40361725 9.30882576,3.40361725 L12.0327273,3.40361725 L12.0327273,5.45986725 L9.33109848,5.45986725 C7.36460227,5.45986725 5.77051136,7.0394656 5.77051136,8.98824563 C5.77051136,10.9370257 7.36460227,12.5170182 9.33109848,12.5170182 L12.5117235,12.5170182 C12.843428,12.5163612 13.0713258,12.2545182 13.0701326,11.9544431 L13.0701326,3.69620359 C13.0703977,0.588902535 17.1224432,-0.902801669 19.2669886,2.7067704 C19.4218371,2.96782521 22.7996023,8.73467956 22.7996023,8.73467956 L22.7996023,3.69620359 C22.7998674,0.588902535 26.8519129,-0.902801669 28.9960606,2.7067704 C29.1513068,2.96782521 32.5292045,8.73467956 32.5292045,8.73467956 L32.5292045,0.662081964 L34.6089205,0.662081964 L34.6089205,14.2212974 C34.6089205,14.4991691 34.427822,14.6467103 34.272178,14.6887524 C34.0311553,14.7539176 33.7801894,14.6125512 33.6012121,14.3115564 C33.5731061,14.2639964 31.9491856,11.489353 30.3780303,8.80562551 C28.7364773,6.00115854 27.1861364,3.35237851 27.1651894,3.31743106 C26.7571212,2.63043782 26.1525758,2.50982971 25.7225,2.62583947 C25.2180492,2.76195058 24.8795833,3.21587326 24.8793182,3.75493106 L24.8793182,14.221166 C24.8793182,14.4991691 24.6980871,14.6467103 24.5429735,14.6887524 C24.3016856,14.7539176 24.0507197,14.6128139 23.871875,14.3118192 C23.8474811,14.2705654 22.4311742,11.8507832 20.9314773,9.28897761 C19.2237689,6.37125989 17.4577273,3.35421785 17.4357197,3.31743106 C17.0271212,2.62964953 16.4193939,2.50956695 15.9866667,2.62623362 C15.4804924,2.76300163 15.1404356,3.21666154 15.1404356,3.75493106 L15.140303,13.9932194 C15.140303,14.2613688 14.8840341,14.5727426 14.5535227,14.5727426 L9.30882576,14.5727426 C6.20151515,14.5727426 3.67329545,12.0678252 3.67329545,8.98837701 Z" id="Combined-Shape"></path>
            </g>
        </g>
    </g>
</svg>