<svg id="Layer_1" data-name="Layer 1" xmlns="http://www.w3.org/2000/svg" viewBox="0 0 42 32"><defs><style>.cls-1{fill:#fdc600;}</style></defs><title>COMEDY</title><path class="cls-1" d="M6.31,8.78A7.22,7.22,0,0,0,0,12.47l1.52.85a5.49,5.49,0,1,1,0,5.39L0,19.56A7.23,7.23,0,1,0,6.31,8.78Z"/><path class="cls-1" d="M8,17a2,2,0,1,1,0-1.91l1.52-.85a3.68,3.68,0,1,0,0,3.61Z"/><path d="M37.71,22.19l-.17-.73H36l-.17.73H34.72l1.61-5.61h.91l1.62,5.61Zm-1-3.34-.4,1.65h1l-.4-1.65c0-.11,0-.24-.07-.39a2.29,2.29,0,0,1-.05-.36c0,.08,0,.2,0,.35S36.7,18.73,36.67,18.85Z"/><path d="M16.47,11a2.07,2.07,0,0,0-.28,1.3V13a2,2,0,0,0,.28,1.27.69.69,0,0,0,.56.24.81.81,0,0,0,.79-.56l1,.43A1.79,1.79,0,0,1,17,15.52a1.83,1.83,0,0,1-1.2-.38A2.61,2.61,0,0,1,15.07,13v-.68a2.57,2.57,0,0,1,.76-2.13,1.9,1.9,0,0,1,1.2-.4A1.78,1.78,0,0,1,18.81,11l-1,.42a.81.81,0,0,0-.79-.59A.75.75,0,0,0,16.47,11Z"/><path d="M20.06,15.14A2.61,2.61,0,0,1,19.3,13v-.68a2.57,2.57,0,0,1,.76-2.13,2,2,0,0,1,1.2-.4,1.91,1.91,0,0,1,1.19.4,2.57,2.57,0,0,1,.77,2.13V13a2.58,2.58,0,0,1-.77,2.14,1.79,1.79,0,0,1-1.19.38A1.83,1.83,0,0,1,20.06,15.14ZM20.7,11a2,2,0,0,0-.28,1.3V13a1.9,1.9,0,0,0,.28,1.27.69.69,0,0,0,.56.24.67.67,0,0,0,.55-.24A1.9,1.9,0,0,0,22.09,13v-.63a2,2,0,0,0-.28-1.3.72.72,0,0,0-.55-.23A.74.74,0,0,0,20.7,11Z"/><path d="M26.05,15.45l-.85-3.08-.34,3.08h-1l.65-5.61h1.05l1,3.54,1-3.54H28.5l.66,5.61h-1l-.35-3.08-.84,3.08Z"/><path d="M30,9.84h3v1.05H31.15v1.19h1.61v1H31.15V14.4H33v1H30Z"/><path d="M34,9.84h1.79a1.77,1.77,0,0,1,1.42.64,2.44,2.44,0,0,1,.52,1.6v1a2.75,2.75,0,0,1-.52,1.72,1.78,1.78,0,0,1-1.42.65H34Zm1.66,4.56a.83.83,0,0,0,.72-.33A2,2,0,0,0,36.56,13v-.89a1.57,1.57,0,0,0-.23-.91.85.85,0,0,0-.72-.31h-.54V14.4Z"/><path d="M39.25,12.75,37.68,9.84h1.21l.92,1.77.92-1.77h1.21l-1.57,2.91v2.7H39.25Z"/><path d="M16.47,17.77a2.07,2.07,0,0,0-.28,1.3v.63A2,2,0,0,0,16.47,21a.69.69,0,0,0,.56.24.81.81,0,0,0,.79-.56l1,.43A1.79,1.79,0,0,1,17,22.25a1.83,1.83,0,0,1-1.2-.38,2.61,2.61,0,0,1-.76-2.17V19a2.57,2.57,0,0,1,.76-2.13,1.9,1.9,0,0,1,1.2-.4,1.78,1.78,0,0,1,1.78,1.22l-1,.42a.81.81,0,0,0-.79-.59A.75.75,0,0,0,16.47,17.77Z"/><path d="M19.41,16.57h2.84v1.05H20.53v1.19H22v1H20.53v1.28h1.72v1.05H19.41Z"/><path d="M23.07,16.57h1l1.5,3.28V16.57h1v5.61h-1l-1.5-3.24v3.24h-1Z"/><path d="M28.19,17.62h-1V16.57h3.21v1.05h-1v4.56H28.19Z"/><path d="M32.07,22.18H30.94V16.57h1.79a1.74,1.74,0,0,1,1.72,1.85v.13a1.86,1.86,0,0,1-.84,1.62l.82,2H33.3l-.73-1.78h-.5Zm.53-2.83c.42,0,.73-.26.73-.87v0c0-.56-.31-.84-.73-.84h-.53v1.73Z"/><path d="M39.25,16.57h1.12v4.56H42v1.05H39.25Z"/></svg>