<svg xmlns="http://www.w3.org/2000/svg" viewBox="0 0 50 50"><path d="M11 14C4.935 14 .01 18.935.01 25S4.935 36 11 36h6c2.435 0 4.78-.81 6.703-2.297A8.465 8.465 0 0 0 29.5 36a8.414 8.414 0 0 0 5.998-2.484A8.413 8.413 0 0 0 41.5 36c4.687 0 8.5-3.813 8.5-8.5V14h-7v13c0 1.103-.897 2-2 2s-2-.897-2-2V14h-7v13c0 1.103-.897 2-2 2s-2-.897-2-2V14h-7v11c0 2.206-1.794 4-4 4h-6c-2.206 0-4-1.794-4-4s1.794-4 4-4h8v-7h-8zm-1.875 9.375v.375h1v2.875h.375V23.75h1v-.375H9.125zm2.875 0v3.25h.375v-1.5h1.75v1.5h.375v-3.25h-.375v1.375h-1.75v-1.375H12zm3.125 0v3.25h2.25v-.375H15.5v-1.125h1.625v-.375H15.5v-1h1.875v-.375h-2.25z"/></svg>