<?xml version="1.0" ?><svg id="Layer_1" style="enable-background:new 0 0 62 62;" version="1.1" viewBox="0 0 62 62" xml:space="preserve" xmlns="http://www.w3.org/2000/svg" xmlns:xlink="http://www.w3.org/1999/xlink"><style type="text/css">
	.st0{fill:#5FD2FF;}
	.st1{fill:#FFFFFF;}
	.st2{fill:#0082ED;}
	.st3{fill:#2BA8FC;}
	.st4{fill:#CECECE;}
	.st5{fill:#F92B75;}
	.st6{fill:#3BB0FF;}
	.st7{fill:#CE004F;}
	.st8{fill:none;stroke:#ED0C68;stroke-width:5;stroke-linecap:round;stroke-linejoin:round;stroke-miterlimit:10;}
	.st9{fill:#ED0C68;}
	.st10{fill:#78DED4;}
	.st11{fill:#1E5363;}
	.st12{fill:#54C8E8;}
	.st13{fill:#F4F4F4;}
	.st14{fill:#0C82EB;}
	.st15{fill:#00B2E3;}
	.st16{fill:#68A2B9;}
	.st17{fill:#A2C5D3;}
	.st18{fill:#76777A;}
	.st19{fill:#A7A8A9;}
	.st20{fill:#D6D6D6;}
	.st21{fill:none;stroke:#F92B75;stroke-width:5;stroke-linecap:round;stroke-linejoin:round;stroke-miterlimit:10;}
	.st22{fill:#FD4A5C;}
	.st23{fill:#FF8E9F;}
	.st24{fill:none;stroke:#F458A3;stroke-width:5;stroke-linecap:round;stroke-linejoin:round;stroke-miterlimit:10;}
	.st25{fill:#FFB259;}
	.st26{fill:#F32735;}
	.st27{fill:#FF9E18;}
	.st28{fill:#FFC27A;}
	.st29{fill:#FFC56D;}
	.st30{fill:none;stroke:#FD4A5C;stroke-width:5;stroke-linecap:round;stroke-linejoin:round;stroke-miterlimit:10;}
	.st31{fill:#0069A7;}
	.st32{fill:#D8D8D8;}
	.st33{fill:#8CB7C9;}
	.st34{fill:#65BAAF;}
	.st35{fill:#00AF9A;}
	.st36{fill:#00C4B3;}
	.st37{fill:#19D3C5;}
	.st38{fill:none;stroke:#54C8E8;stroke-width:5;stroke-linecap:round;stroke-linejoin:round;stroke-miterlimit:10;}
	.st39{fill:#8331A7;}
	.st40{fill:#009383;}
	.st41{fill:#98989A;}
	.st42{fill:#636569;}
	.st43{fill:#898A8D;}
	.st44{fill:#FFB548;}
	.st45{fill:none;stroke:#FFB548;stroke-width:5;stroke-linecap:round;stroke-linejoin:round;stroke-miterlimit:10;}
	.st46{fill:#ED40A9;}
	.st47{fill:#CB007B;}
	.st48{fill:#E50695;}
	.st49{fill:#D7282F;}
	.st50{fill:#E5E5E5;}
	.st51{fill:#FFA4B4;}
	.st52{fill:#F6A7D7;}
	.st53{fill:#F478C4;}
	.st54{fill:#E0C7E6;}
	.st55{fill:#B980D0;}
	.st56{fill:#D9B7E2;}
	.st57{fill:#BADF93;}
	.st58{fill:#4C9C2E;}
	.st59{fill:#3DAE2B;}
	.st60{fill:#AADA91;}
	.st61{fill:#6ABF4B;}
	.st62{fill:#EFB8A9;}
	.st63{fill:#FECB8B;}
	.st64{fill:#BDE8EF;}
	.st65{fill:#CCA1DD;}
	.st66{fill:#B2B2B2;}
	.st67{fill:none;stroke:#FF8300;stroke-width:5;stroke-linecap:round;stroke-linejoin:round;stroke-miterlimit:10;}
	.st68{fill:none;stroke:#FF9E18;stroke-width:5;stroke-linecap:round;stroke-linejoin:round;stroke-miterlimit:10;}
	.st69{fill:#96DAEA;}
	.st70{fill:#FF8300;}
	.st71{fill:none;stroke:#6ABF4B;stroke-width:5;stroke-linecap:round;stroke-linejoin:round;stroke-miterlimit:10;}
	.st72{fill:none;}
	.st73{fill:#444444;}
	.st74{fill:#FDCF85;}
</style><g><polygon class="st22" points="53.65,15.88 13.67,15.88 14.69,2.5 54.67,2.5  "/><path class="st49" d="M53.65,18.38H13.67c-0.7,0-1.36-0.29-1.83-0.8c-0.47-0.51-0.71-1.2-0.66-1.89L12.2,2.31   C12.3,1.01,13.38,0,14.69,0h39.98c0.7,0,1.36,0.29,1.83,0.8c0.47,0.51,0.71,1.2,0.66,1.89l-1.02,13.38   C56.05,17.37,54.96,18.38,53.65,18.38z M16.37,13.38h34.97L51.98,5H17.01L16.37,13.38z"/><path class="st26" d="M13.67,18.38c-0.06,0-0.13,0-0.19-0.01c-1.38-0.11-2.41-1.31-2.3-2.68L12.2,2.31C12.3,1.01,13.38,0,14.69,0   h39.98c1.38,0,2.5,1.12,2.5,2.5S56.05,5,54.67,5H17.01l-0.84,11.07C16.06,17.38,14.97,18.38,13.67,18.38z"/><polygon class="st22" points="50.53,37.18 52.57,23.8 12.59,23.8 10.55,37.18 9.37,46.12 7.33,59.5 47.31,59.5 49.35,46.12    25.18,46.12 25.18,37.18  "/><path class="st49" d="M47.31,62H7.33c-0.73,0-1.42-0.32-1.9-0.87s-0.68-1.29-0.58-2.01L6.9,45.75l1.18-8.89l2.05-13.43   c0.19-1.22,1.24-2.12,2.47-2.12h39.98c0.73,0,1.42,0.32,1.9,0.87s0.68,1.29,0.58,2.01L53,37.56c-0.19,1.22-1.24,2.12-2.47,2.12   H27.68v3.94h21.67c0.73,0,1.42,0.32,1.9,0.87s0.68,1.29,0.58,2.01l-2.04,13.38C49.59,61.1,48.54,62,47.31,62z M10.24,57h34.93   l1.28-8.38H25.18c-1.38,0-2.5-1.12-2.5-2.5v-8.94c0-1.38,1.12-2.5,2.5-2.5h23.21l1.28-8.38H14.74l-1.72,11.25l-1.18,8.89L10.24,57z   "/></g></svg>