<?xml version="1.0" encoding="UTF-8"?>
<svg width="42px" height="32px" viewBox="0 0 42 32" version="1.1" xmlns="http://www.w3.org/2000/svg" xmlns:xlink="http://www.w3.org/1999/xlink">
    <!-- Generator: Sketch 46.2 (44496) - http://www.bohemiancoding.com/sketch -->
    <title>ESPN3_Color</title>
    <desc>Created with Sketch.</desc>
    <defs></defs>
    <g id="Domestic" stroke="none" stroke-width="1" fill="none" fill-rule="evenodd">
        <g id="ESPN3" fill="#DB3C36">
            <g id="Logo-/-ESPN3-Color" transform="translate(0.000000, 12.000000)">
                <path d="M1.8255958,0.228076737 L8.53194944,0.228076737 L8.24437178,2.32941587 L1.59098362,2.32941587 L1.8255958,0.228076737 Z M1.48801494,3.09490451 L8.1940131,3.09490451 L7.9729089,4.80014311 L3.85155492,4.80014311 L3.71943746,5.67867231 L7.85548431,5.67867231 L7.60641623,7.66593907 L0.931818182,7.66593907 L1.48801494,3.09490451 Z M31.0070854,7.66593907 L28.5267133,7.66593907 L29.069876,3.09490451 L31.5785675,3.09490451 L31.0070854,7.66593907 Z M26.0176664,7.66593907 L23.5383607,7.66593907 L24.0823529,3.09490451 L26.5909258,3.09490451 L26.0176664,7.66593907 Z M24.1694437,2.32941587 L31.6656584,2.32941587 C32.0038317,0.923287631 31.2999952,0.228076737 30.5659434,0.228076737 L24.4482531,0.228076737 L24.1694437,2.32941587 Z M16.483288,3.09490451 L23.7874288,3.09490451 L23.6280584,3.89146211 C23.6280584,3.89146211 23.4666736,4.80014311 22.335914,4.80014311 L18.7560639,4.80014311 L18.418957,7.66593907 L15.9404807,7.66593907 L16.483288,3.09490451 Z M8.5179675,3.09490451 C8.5179675,3.09490451 8.51654561,3.54236627 8.51654561,3.7772751 C8.51654561,4.23849433 8.99181301,4.80014311 9.71946624,4.80014311 C10.1738792,4.80014311 13.4099869,4.80277995 13.4099869,4.80277995 L13.2923254,5.67867231 L8.29615235,5.67867231 L8.03120647,7.66593907 L13.8863208,7.66593907 C14.3780584,7.66593907 15.5233924,7.28187632 15.7186656,6.14837531 C15.7186656,6.14745815 15.9480642,4.28641619 15.9536332,4.21659702 C15.9844409,3.85500481 15.7564642,3.09490451 14.7386265,3.09490451 L8.5179675,3.09490451 Z M10.2703309,0.228076737 L22.5125841,0.228076737 C22.5125841,0.228076737 24.0823529,0.171900395 23.8770079,2.32941587 L8.6483076,2.32941587 C8.6483076,0.875480417 9.68285252,0.228076737 10.2703309,0.228076737 Z M40.0321894,2.26223355 C39.9125135,3.17722005 39.7606081,3.57653066 39.0978879,3.84984576 C39.7821734,4.22852016 39.7170034,4.79647445 39.6521888,5.28004957 C39.5327499,6.19446284 39.412837,7.62455201 37.1744235,7.62455201 L33.4949224,7.62455201 L33.7010968,5.96322268 L37.0440834,5.96322268 C37.3808348,5.96322268 37.5001552,5.7530773 37.5545426,5.32189521 C37.6088115,4.89094242 37.4891356,4.71209529 37.2067715,4.71209529 L35.1702667,4.71209529 L35.3794033,3.02990046 L37.456669,3.02990046 C37.7718551,3.02990046 37.8697287,2.7775655 37.9130964,2.45139878 C37.9570565,2.0941631 37.8697287,1.92597801 37.5981473,1.92597801 L33.9430554,1.92597801 L34.1488743,0.264648682 L38.0977054,0.264648682 C39.630268,0.264648682 40.2280551,0.695945414 40.0321894,2.26223355 Z" id="Combined-Shape"></path>
            </g>
        </g>
    </g>
</svg>