<?xml version="1.0" encoding="UTF-8"?>
<svg width="42px" height="32px" viewBox="0 0 42 32" version="1.1" xmlns="http://www.w3.org/2000/svg" xmlns:xlink="http://www.w3.org/1999/xlink">
    <!-- Generator: Sketch 46.2 (44496) - http://www.bohemiancoding.com/sketch -->
    <title>ESPN2HD_Color</title>
    <desc>Created with Sketch.</desc>
    <defs></defs>
    <g id="Domestic" stroke="none" stroke-width="1" fill="none" fill-rule="evenodd">
        <g id="ESPN2HD" fill="#DB3C36">
            <g id="Logo-/-ESPN2-Color" transform="translate(0.000000, 12.000000)">
                <path d="M33.0354741,0.529940268 L38.7094824,0.515155579 C38.7094824,0.515155579 39.943771,0.456208834 39.8534356,1.44025466 L39.5675703,4.28889933 C39.5675703,4.28889933 39.4473199,5.14093901 38.619147,5.14093901 L35.2407208,5.14093901 L35.1423162,6.05154142 L39.3868995,6.05154142 L39.1763137,8.01886505 L32.13212,8.01886505 L32.5685444,4.46535555 C32.5685444,4.46535555 32.6133185,3.43762769 33.562037,3.43762769 L36.918519,3.43762769 L36.9935032,2.54152195 L32.7943829,2.54152195 L33.0354741,0.529940268 Z M2.06125396,0.541940827 L8.63900991,0.543668907 L8.39447452,2.64520678 L1.79123179,2.64520678 L2.06125396,0.541940827 Z M10.91806,0.567093998 C12.1442796,0.567093998 21.9768655,0.555669466 22.7113573,0.567478016 C23.456772,0.578902548 24.0433617,1.16088165 24.062157,1.91192463 C24.071407,2.26704517 23.9945531,2.65029502 23.9945531,2.65029502 L8.92595767,2.64520678 C8.92595767,2.64520678 8.98126105,2.28374995 9.02947929,1.96232698 C9.11715778,1.37564365 9.92358333,0.565749936 10.91806,0.567093998 Z M24.8120983,0.533876451 C24.8120983,0.533876451 29.0321789,0.52504404 30.3949839,0.530900313 C31.275705,0.534260469 32.1589845,0.936807217 32.0258431,2.32195973 C31.9863829,2.73276286 31.9979946,2.65106305 31.9979946,2.65106305 L24.5549672,2.64520678 L24.8120983,0.533876451 Z M8.35993451,8.0200171 L8.60437149,6.04270901 L13.4627042,6.03838881 L13.5528428,5.16196399 C13.5528428,5.16196399 10.4986597,5.16906832 10.00644,5.15111549 C9.31170364,5.12596232 8.63399127,4.64334784 8.82312488,3.44588407 C10.1165547,3.4336915 14.0369933,3.43503557 14.4751889,3.43916376 C15.3612238,3.44588407 16.1079178,3.91620997 16.0486782,5.10647341 C16.0222074,5.6367061 15.8865074,6.67537848 15.6495492,7.07754121 C15.0127731,8.15163923 14.0550997,8.00686449 13.8742321,8.0200171 C13.7277077,8.02635339 8.35993451,8.0200171 8.35993451,8.0200171 Z M23.8949676,3.47458941 C23.8949676,3.47458941 23.8236243,3.8694558 23.7719619,4.12578774 C23.6643073,4.65573242 23.3314046,5.15389962 22.5572557,5.15466765 L19.1136857,5.15466765 L18.6991072,8.0200171 L16.2065191,8.0200171 L16.7983243,3.47458941 L23.8949676,3.47458941 Z M24.4392434,3.47458941 L27.0092759,3.47554945 L26.3431752,8.00590444 L23.8022705,8.00744051 L24.4392434,3.47458941 Z M29.3705922,3.47458941 L31.8661325,3.47554945 L31.2743273,8.01924906 L28.7786887,8.0200171 L29.3705922,3.47458941 Z M1.67531119,3.44588407 L8.29488908,3.44588407 L8.06009575,5.18414103 L3.96498903,5.18826922 L3.84906843,6.03838881 L7.94437196,6.04270901 L7.70013178,8.03240168 L1.10928803,8.03240168 L1.67531119,3.44588407 Z" id="Combined-Shape"></path>
            </g>
        </g>
    </g>
</svg>