<?xml version="1.0" encoding="UTF-8"?>
<svg width="42px" height="32px" viewBox="0 0 42 32" version="1.1" xmlns="http://www.w3.org/2000/svg" xmlns:xlink="http://www.w3.org/1999/xlink">
    <!-- Generator: Sketch 46.2 (44496) - http://www.bohemiancoding.com/sketch -->
    <title>NFLHD_Color</title>
    <desc>Created with Sketch.</desc>
    <defs></defs>
    <g id="Domestic" stroke="none" stroke-width="1" fill="none" fill-rule="evenodd">
        <g id="NFLHD">
            <g id="Logo-/-NFL-Color" transform="translate(0.000000, 8.000000)">
                <polygon id="Fill-22" fill="#003A74" points="37.8284638 11.6497151 36.4800738 15.1847819 34.5619601 15.1847819 35.5702699 12.5334818 35.1990879 12.5334818 35.5390661 11.6497151"></polygon>
                <polygon id="Fill-22" fill="#003A74" points="40.8473769 11.6497151 40.5069908 12.5334818 40.191792 12.5334818 39.3936487 13.334796 39.6223743 14.3011123 39.937981 14.3011123 39.6040191 15.1847819 37.7169053 15.1847819 37.3520456 13.7530799 37.6241098 13.0401423 39.028585 11.6497151"></polygon>
                <polygon id="Fill-21" fill="#003A74" points="29.0563314 15.1847819 29.9533886 12.8279412 31.8711963 12.8279412 30.9743431 15.1847819"></polygon>
                <path d="M32.0444486,13.2404952 L32.3290555,13.2404952 C32.4840546,13.2404952 32.607544,13.1521185 32.6696456,12.9989646 L32.7561188,12.7751094 C32.8178125,12.6219556 32.7561188,12.5334818 32.6015276,12.5334818 L29.6934592,12.5334818 L30.0338453,11.6497151 L34.1357126,11.6497151 C34.747959,11.6497151 34.9771945,11.9914706 34.7542813,12.5746595 L34.6119269,12.9459386 C34.463556,13.3287747 34.2531856,13.5291276 33.9501216,13.6058502 C34.1727288,13.658779 34.2776591,13.8356295 34.1850676,14.0653117 L34.1480513,14.1596126 C34.1169495,14.2420651 34.1480513,14.3011123 34.2406429,14.3011123 L34.3400666,14.3011123 L34.0055949,15.1847819 L32.5208669,15.1847819 C32.1495829,15.1847819 31.9518571,14.8902254 32.0878891,14.5365245 L32.1744643,14.3011123 C32.2302436,14.1536884 32.1744643,14.0653117 32.0197711,14.0653117 L31.7289439,14.0653117 L32.0444486,13.2404952 Z" id="Fill-21" fill="#003A74"></path>
                <path d="M28.6918796,11.6497151 C29.3045339,11.6497151 29.5333615,11.9914706 29.3105503,12.5746595 L28.6672021,14.2597404 C28.4446968,14.8430264 27.955532,15.1847819 27.3433875,15.1847819 L24.3983029,15.1847819 C23.7858526,15.1847819 23.557229,14.8430264 23.7800401,14.2597404 L24.3241685,12.8279412 L26.2419763,12.8279412 L25.7718804,14.0593876 C25.716305,14.2127357 25.7718804,14.3011123 25.9264716,14.3011123 L26.489363,14.3011123 C26.6440561,14.3011123 26.7677495,14.2185627 26.830055,14.0593876 L27.3184041,12.7751094 C27.3741834,12.6219556 27.3184041,12.5334818 27.1639149,12.5334818 L24.4355231,12.5334818 C24.6398772,12.0032218 25.1345486,11.6497151 25.7469989,11.6497151 L28.6918796,11.6497151" id="Fill-20" fill="#003A74"></path>
                <polyline id="Fill-19" fill="#003A74" points="21.9739949 11.6497151 21.9678765 13.0046946 23.0135085 11.6497151 24.5291344 11.6497151 21.8005387 15.1847819 20.0621016 15.1847819 20.0561871 13.8767101 19.0477753 15.1847819 17.5815043 15.1847819 17.575182 12.5334818 17.2102204 12.5334818 17.5506065 11.6497151 19.4932957 11.6497151 19.4932957 12.9635169 20.5077239 11.6497151 21.9739949 11.6497151"></polyline>
                <polyline id="Fill-18" fill="#003A74" points="17.1800363 11.6497151 16.8398541 12.5334818 15.7569 12.5334818 14.7483862 15.1847819 12.8305784 15.1847819 13.8389902 12.5334818 12.6326487 12.5334818 12.9728309 11.6497151 17.1800363 11.6497151"></polyline>
                <polygon id="Fill-17" fill="#003A74" points="9.92332585 12.8279412 9.85530981 13.0046946 11.2102262 13.0046946 10.8948234 13.8296082 9.53990706 13.8296082 9.36053641 14.3011123 10.1027985 14.3011123 10.2142551 14.0064587 11.6988812 14.0064587 11.2535647 15.1847819 7.10846089 15.1847819 8.00562006 12.8279412"></polygon>
                <polygon id="Fill-17" fill="#003A74" points="12.6022607 11.6497151 12.1506219 12.8279412 10.6658938 12.8279412 10.7771465 12.5334818 7.74569068 12.5334818 8.08597485 11.6497151"></polygon>
                <polygon id="Fill-16" fill="#003A74" points="1.23185411 15.1847819 2.35151856 12.238731 3.0567644 12.238731 3.3476936 13.5291276 2.71668417 15.1847819"></polygon>
                <polygon id="Fill-16" fill="#003A74" points="4.04671908 15.1847819 3.30435504 11.9441745 2.03611582 11.9441745 2.37017963 11.0605049 5.12314694 11.0605049 5.62434464 13.2404952 6.45328383 11.0605049 7.93811388 11.0605049 6.36681066 15.1847819"></polygon>
                <path d="M24.5806308,1.50086833 C24.2548268,1.72268406 23.6311594,2.02695232 22.8286313,1.83864203 C21.4381263,1.5131051 21.0399214,0.371783515 21.0399214,0.371783515 C21.0399214,0.371783515 20.6424304,1.5131051 19.2516195,1.83864203 C18.4486834,2.02695232 17.8249141,1.72268406 17.4988042,1.50086833 L17.2480524,1.50086833 L17.2480524,7.6526616 C17.2483583,7.80785492 17.2878219,8.11474534 17.5527479,8.42144153 C17.8801835,8.79893617 18.4354269,9.04483697 19.2020606,9.15088898 C19.8134912,9.23479826 20.2653339,9.41805846 20.5837958,9.71018706 C20.8177221,9.92462188 21.0399214,10.2963866 21.0399214,10.2963866 C21.0399214,10.2963866 21.2704826,9.91646404 21.4965569,9.70941012 C21.8152228,9.41805846 22.2667596,9.23479826 22.8779863,9.15088898 C23.6444159,9.04561391 24.2002712,8.79893617 24.5272989,8.42144153 C24.7918171,8.11474534 24.8321984,7.80872898 24.8325043,7.6526616 L24.8325043,1.50086833 L24.5806308,1.50086833" id="Fill-1" fill="#FFFFFF"></path>
                <path d="M24.6045945,1.74103922 C24.6045945,1.74103922 23.8443852,2.3043191 22.7738717,2.0493864 C21.5250074,1.75249905 21.0399214,0.861157194 21.0399214,0.861157194 C21.0399214,0.861157194 20.5549375,1.75249905 19.306583,2.0493864 C18.2354577,2.3043191 17.4754523,1.74103922 17.4754523,1.74103922 L17.4754523,7.6526616 C17.4754523,7.85320867 17.563761,8.70618922 19.234692,8.9361628 C19.8947637,9.02764723 20.3879056,9.22906834 20.7418541,9.55382833 C20.8692185,9.66968918 20.9661949,9.7882693 21.0399214,9.89772041 C21.1141578,9.7882693 21.2106244,9.66968918 21.3381927,9.55382833 C21.6924472,9.22906834 22.1851811,9.02764723 22.8453549,8.9361628 C24.5162858,8.70618922 24.6045945,7.85320867 24.6045945,7.6526616 L24.6045945,1.74103922" id="Fill-2" fill="#003A74"></path>
                <path d="M21.0399214,9.29637058 C21.0399214,9.29637058 21.5250074,8.7258069 22.7849868,8.54070148 C24.2284158,8.32918017 24.185995,7.683642 24.185995,7.65101061 L24.185995,4.55423377 L17.8938479,4.55510783 L17.8938479,7.65101061 C17.8938479,7.683642 17.851835,8.32918017 19.2946521,8.54070148 C20.5548355,8.7258069 21.0399214,9.29637058 21.0399214,9.29637058" id="Fill-3" fill="#FFFFFF"></path>
                <path d="M21.8241964,2.00898563 C21.8241964,2.00898563 21.6764374,2.0821149 21.4709617,2.27450412 C21.5173594,2.30024018 21.5694677,2.33452256 21.5989379,2.35870475 C21.568142,2.38405234 21.5366323,2.41299327 21.5065503,2.43989475 C21.3731695,2.33452256 21.2337723,2.28110809 21.1258848,2.25566338 C21.1617793,2.23206389 21.1999172,2.20710477 21.2375453,2.18505916 C21.2951601,2.19816998 21.3517551,2.22060406 21.3517551,2.22060406 C21.5840498,2.05191145 21.7847328,1.97878218 21.7847328,1.97878218 C21.7847328,1.97878218 21.7615849,1.96780793 21.6993814,1.96848775 C20.7858045,1.98033605 19.9447305,2.62917621 20.1031967,3.74097416 C20.1205321,3.85858312 20.1683575,4.07350353 20.2295414,4.16702741 C20.249732,3.9820191 20.3228467,3.57305848 20.5399474,3.13399153 C20.4639775,3.10864393 20.401468,3.09805815 20.401468,3.09805815 C20.424106,3.05348135 20.4546979,2.99754183 20.4546979,2.99754183 C20.6148976,3.02657988 20.7560284,3.09067725 20.8789059,3.18255014 C20.8495377,3.22790388 20.829551,3.2573304 20.8156826,3.28141547 C20.772752,3.24839561 20.7294134,3.22139703 20.681588,3.19566096 C20.4381783,3.60044554 20.3248862,3.9836701 20.2788963,4.18421716 C20.2818535,4.19606546 20.3079587,4.20257231 20.3298829,4.20004727 C21.3305447,4.07602857 21.7986012,3.59073382 21.9413635,3.06329019 C22.0349748,2.71813558 22.0046888,2.35705376 21.8792619,2.06172028 C21.8698804,2.04132567 21.8529528,2.0065577 21.8241964,2.00898563" id="Fill-15" fill="#FFFFFF"></path>
                <path d="M21.3136466,2.72058673 C21.1859827,2.58995274 21.0431304,2.50397884 20.8908368,2.46330855 C20.9277813,2.41942068 20.9658548,2.38261149 20.9983865,2.34811897 C21.1882404,2.40436237 21.3159044,2.51157234 21.4030319,2.60295178 C21.3722448,2.64194893 21.3415603,2.68146088 21.3136466,2.72058673" id="Fill-15" fill="#55565A"></path>
                <path d="M21.1276183,2.93597428 C21.0071881,2.8059838 20.859939,2.71228769 20.6938248,2.66955815 C20.7193181,2.62837305 20.7489922,2.58345555 20.7779526,2.54458711 C20.9043992,2.57161483 21.0672502,2.65540077 21.2091968,2.80379584 C21.1803384,2.84819853 21.1529076,2.8920864 21.1276183,2.93597428" id="Fill-15" fill="#55565A"></path>
                <path d="M20.9698108,3.15747836 C20.8378316,3.01989438 20.683718,2.93597973 20.5327073,2.89917055 C20.5327073,2.89917055 20.5786311,2.80547444 20.6053166,2.75746806 C20.7896323,2.80225686 20.9402293,2.91011034 21.0449025,3.020924 C21.0175964,3.06815817 20.9924624,3.1141053 20.9698108,3.15747836" id="Fill-15" fill="#55565A"></path>
                <polyline id="Fill-14" fill="#FFFFFF" points="22.8925684 3.17934527 22.610001 2.98938398 22.3268217 3.17934527 22.431854 2.8603152 22.1469412 2.65724309 22.4948734 2.65724309 22.610001 2.34316599 22.7247207 2.65724309 23.0725509 2.65724309 22.7877401 2.8603152 22.8925684 3.17934527"></polyline>
                <polyline id="Fill-13" fill="#FFFFFF" points="24.1271565 3.17934527 23.8443852 2.98938398 23.5616138 3.17934527 23.6659323 2.8603152 23.3818353 2.65724309 23.7296654 2.65724309 23.8443852 2.34316599 23.9591049 2.65724309 24.307139 2.65724309 24.0224302 2.8603152 24.1271565 3.17934527"></polyline>
                <polyline id="Fill-12" fill="#FFFFFF" points="22.8925684 4.24015668 22.610001 4.05097233 22.3268217 4.24015668 22.431854 3.92112661 22.1469412 3.71727756 22.4948734 3.71727756 22.610001 3.4039774 22.7247207 3.71727756 23.0725509 3.71727756 22.7877401 3.92112661 22.8925684 4.24015668"></polyline>
                <polyline id="Fill-11" fill="#FFFFFF" points="24.1271565 4.24015668 23.8443852 4.05097233 23.5616138 4.24015668 23.6659323 3.92112661 23.3818353 3.71727756 23.7296654 3.71727756 23.8443852 3.4039774 23.9591049 3.71727756 24.307139 3.71727756 24.0224302 3.92112661 24.1271565 4.24015668"></polyline>
                <polyline id="Fill-10" fill="#FFFFFF" points="19.2923068 2.8603152 19.0074959 2.65724309 19.3555301 2.65724309 19.4701478 2.34316599 19.5850715 2.65724309 19.9327997 2.65724309 19.6483968 2.8603152 19.753429 3.17934527 19.4701478 2.98938398 19.1876824 3.17934527 19.2923068 2.8603152"></polyline>
                <polyline id="Fill-9" fill="#FFFFFF" points="18.0575147 2.8603152 17.7731118 2.65724309 18.1210439 2.65724309 18.2354577 2.34316599 18.3508913 2.65724309 18.6983135 2.65724309 18.4137067 2.8603152 18.518433 3.17934527 18.2354577 2.98938398 17.9528903 3.17934527 18.0575147 2.8603152"></polyline>
                <polyline id="Fill-8" fill="#FFFFFF" points="19.2923068 3.92112661 19.0074959 3.71727756 19.3555301 3.71727756 19.4701478 3.4039774 19.5850715 3.71727756 19.9327997 3.71727756 19.6483968 3.92112661 19.753429 4.24015668 19.4701478 4.05106945 19.1876824 4.24015668 19.2923068 3.92112661"></polyline>
                <polyline id="Fill-7" fill="#FFFFFF" points="18.0575147 3.92112661 17.7731118 3.71727756 18.1210439 3.71727756 18.2354577 3.4039774 18.3508913 3.71727756 18.6983135 3.71727756 18.4137067 3.92112661 18.518433 4.24015668 18.2354577 4.05106945 17.9528903 4.24015668 18.0575147 3.92112661"></polyline>
                <polyline id="Fill-6" fill="#D92128" points="22.2365756 8.29975365 22.2365756 7.91730603 22.4692781 7.73559971 22.4692781 5.34554489 22.2707365 5.24629109 22.2707365 4.8594732 23.2104185 4.8594732 23.2104185 5.24629109 23.0260512 5.34554489 23.0260512 7.58730171 23.4298646 7.48319205 23.5067523 6.8958271 23.894148 6.8958271 23.894148 7.87768221 22.2365756 8.29975365"></polyline>
                <polyline id="Fill-5" fill="#D92128" points="21.1998152 8.16495495 21.3890773 8.38016671 21.3890773 8.76212874 20.4504151 8.42794838 20.4504151 8.10406245 20.6576244 8.02277534 20.6576244 5.34544778 20.4515368 5.24629109 20.4515368 4.8594732 22.0817804 4.8594732 22.0817804 5.63679944 21.723345 5.63679944 21.6146417 5.31776937 21.1998152 5.31776937 21.1998152 6.21649213 21.511343 6.21649213 21.6334048 6.04576006 21.8837487 6.04576006 21.8837487 6.84454921 21.6334048 6.84454921 21.5155239 6.68284903 21.1998152 6.68284903 21.1998152 8.16495495"></polyline>
                <polyline id="Fill-4" fill="#D92128" points="19.5732426 6.81774485 19.5732426 5.34544778 19.3791878 5.24172658 19.3791878 4.8594732 20.2627846 4.8594732 20.2627846 5.24172658 20.0778054 5.34544778 20.0778054 8.34918632 19.60567 8.21438761 18.9232662 6.29573979 18.9232662 7.56040024 19.139857 7.7191869 19.139857 8.10901543 18.1917113 7.87855626 18.1917113 7.54728942 18.4083021 7.46561384 18.4083021 5.34719589 18.1864087 5.24172658 18.1864087 4.8594732 18.9035854 4.8594732 19.5732426 6.81774485"></polyline>
            </g>
        </g>
    </g>
</svg>