<svg xmlns="http://www.w3.org/2000/svg" viewBox="0 0 50 50"><path d="M25 2c-7.031 0-13.32 3.158-17.54 8.129a5.716 5.716 0 0 1 1.173.174C14 11.667 14 17.249 14 19H9s0-4-2.5-4c-.561 0-.978.21-1.297.47-.14.116-.454.488-.598 1.05-.287 1.128-.272 3.054 1.895 4.98 2.848 2.531 8.5 4.875 8.5 10.875 0 4.656-3.3 7.138-6.154 7.555 0 0-.436.083-1.237.123C11.827 44.92 18.054 48 25 48c6.989 0 13.243-3.125 17.46-8.045C37.744 39.486 34 32.98 34 25s3.743-14.486 8.46-14.955C38.244 5.125 31.99 2 25 2zm-8 9h5v11.5h5V11h5v29h-5V27.5h-5V40h-5V11zm26.5 4A4.5 10 0 0 0 39 25a4.5 10 0 0 0 4.5 10A4.5 10 0 0 0 48 25a4.5 10 0 0 0-4.5-10zM2.012 23.5s-.067 4.726.703 7c1.143 3.375 2.427 4.5 4.57 4.5C8.856 35 10 34 10 31.875c0-2.378-2.947-3.788-4.984-5.328C3.093 25.094 2.012 23.5 2.012 23.5z"/></svg>