<?xml version="1.0" encoding="UTF-8"?>
<svg width="42px" height="32px" viewBox="0 0 42 32" version="1.1" xmlns="http://www.w3.org/2000/svg" xmlns:xlink="http://www.w3.org/1999/xlink">
    <!-- Generator: Sketch 46.2 (44496) - http://www.bohemiancoding.com/sketch -->
    <title>TNTHD_Color</title>
    <desc>Created with Sketch.</desc>
    <defs></defs>
    <g id="Domestic" stroke="none" stroke-width="1" fill="none" fill-rule="evenodd">
        <g id="TNTHD" fill="#000000">
            <g id="Logo-/-TNT-Color" transform="translate(8.000000, 3.000000)">
                <path d="M8.63347645,9.16550991 L8.91227885,9.16550991 L11.0660604,9.16550991 C11.6774954,9.16550991 11.9832416,9.33577768 12.2889878,9.83344862 L14.8016564,13.688021 L14.8878306,13.688021 L14.8878306,9.16550991 L17.1436999,9.16550991 L17.42233,9.16550991 L24.845609,9.16550991 C23.2693098,4.19689504 18.5621854,0.590931733 12.9999828,0.590931733 C7.43778011,0.590931733 2.73071319,4.19689504 1.1543565,9.16550991 L8.63347645,9.16550991 Z" id="Fill-1"></path>
                <path d="M22.5390118,10.9427589 L22.5390118,18.1673085 L20.067592,18.1673085 L20.067592,10.9427589 L17.2407896,10.9427589 L17.2407896,18.1673085 L15.5911273,18.1673085 C14.9796924,18.1673085 14.6872744,17.9970407 14.3682574,17.4993698 L11.1701015,12.782081 L11.1187416,12.7819112 L11.1187416,18.1673085 L8.71735271,18.1673085 L8.71735271,10.9427589 L5.90129337,10.9427589 L5.90129337,18.1673085 L3.38678643,18.1673085 L3.38678643,10.9427589 L0.736239078,10.9427589 C0.640758018,11.5539795 0.590891856,12.1800305 0.590891856,12.8175723 C0.590891856,19.5702062 6.14666016,25.0442469 12.9999828,25.0442469 C19.8533628,25.0442469 25.4090737,19.5702062 25.4090737,12.8175723 C25.4090737,12.1800305 25.359265,11.5539795 25.2637839,10.9427589 L22.5390118,10.9427589 Z" id="Fill-3"></path>
            </g>
        </g>
    </g>
</svg>